<svg xmlns="http://www.w3.org/2000/svg" viewBox="0 0 85 100">
    <path d="M44.6 1.45L42.45 0l-2.1 1.45Q29.45 9.2 19.6 19.65 0 40.35 0 57.65q0 17.5 12.45 29.95 12.45 12.4 30 12.4 17.6 0 30.1-12.4Q85 75.15 85 57.65q0-17.3-19.6-38Q55.55 9.2 44.6 1.45m-2.15 7.5q11.75 8.85 20.6 18.9 14.65 16.6 14.65 29.8 0 14.5-10.3 24.8Q57.05 92.7 42.45 92.7q-14.55 0-24.9-10.25Q7.3 72.15 7.3 57.65q0-13.2 14.65-29.8 8.9-10.1 20.5-18.9m18.05 31.4q-7.45-7.45-18.05-7.45-10.5 0-18 7.45-7.5 7.4-7.5 17.95 0 10.55 7.5 17.95 7.5 7.45 18 7.45 10.6 0 18.05-7.45Q68 68.85 68 58.3q0-10.55-7.5-17.95z" />
</svg>
