<svg xmlns="http://www.w3.org/2000/svg" viewBox="-9.600000381469727 -11.5 20.100000381469727 27.5">
    <g fill="#00f">
        <path d="M.976-7.686l-.43-.29-.42.29a28.062 28.062 0 0 0-4.153 3.642C-6.642-1.282-7.95 1.253-7.95 3.56c0 2.336.83 4.334 2.492 5.995 1.66 1.654 3.662 2.48 6.004 2.48 2.348 0 4.356-.826 6.024-2.48 1.66-1.66 2.49-3.66 2.49-5.994 0-2.307-1.306-4.842-3.92-7.604A27.796 27.796 0 0 0 .975-7.686m-.43 1.5c1.567 1.18 2.942 2.442 4.122 3.783C6.623-.188 7.6 1.8 7.6 3.56c0 1.936-.687 3.59-2.06 4.964-1.382 1.368-3.046 2.05-4.994 2.05-1.94 0-3.603-.682-4.983-2.05C-5.805 7.15-6.49 5.496-6.49 3.56c0-1.76.978-3.748 2.933-5.963A27.99 27.99 0 0 1 .546-6.185" fill="red"/>
        <path d="M4.158.1C3.164-.896 1.96-1.393.546-1.393c-1.4 0-2.602.497-3.603 1.49-1 .988-1.5 2.185-1.5 3.593s.5 2.606 1.5 3.593c1 .994 2.202 1.49 3.603 1.49 1.414 0 2.618-.496 3.612-1.49 1-.987 1.5-2.185 1.5-3.592S5.16 1.087 4.16.1z"/>
    </g>
</svg>
