<svg xmlns="http://www.w3.org/2000/svg">
<!-- All images created with SVG-edit - http://svg-edit.googlecode.com/ -->























<g id="logo">
<svg viewBox="0 0 16 16" version="1.1">
  <path id="svg_7" d="m-0.0965,16.1043l16.10001,-16.06917l-0.00001,16.06917l-16.1,0z" stroke-linecap="null" stroke-linejoin="null" stroke-dasharray="null" stroke-width="1.5" fill="#cccccc"/>
  <path id="svg_6" d="m0.0035,16.10449l0,-15.99999l16,15.99999l-16,0z" stroke-linecap="null" stroke-linejoin="null" stroke-dasharray="null" stroke-width="1.5" fill="#666666"/>
 </svg>
</g>



<g id="select">
    <svg viewBox="0 0 18 18">
        <path d="M16.8 8.25Q17.9 8.1 18 6.9q.1-1.05-1.05-1.5L0 0l6.1 17.05q.3.95 1.35.95h.2q1.15-.2 1.25-1.3l.9-7.15 7-1.3m-.25-1.5l.2-.65-.2.75-8 1.45-1.05 8.3-.1-.05L2.3 2.2l14.25 4.55z"/>
    </svg>
</g>



<g id="select_node">
<svg viewBox="0 0 24 24" version="1.1">
	<g>
	<path fill="none" d="M6.67,5.202l8.314,7.482l-4.158,0.831L6.67,16.841V5.202z"/>
	<polygon fill="#302F2C" points="14.984,12.684 6.67,5.202 6.67,16.841 10.827,13.515 	"/>
	<path fill="#302F2C" d="M0,24h24V0H0V24z M5.008,0.213L20.14,13.515l-4.987,1.663l3.325,6.651l-3.325,1.663l-4.157-6.651
		l-5.988,3.325V0.213z"/>
	</g>
</svg>
</g>


<g id="rect">
    <svg viewBox="0 0 18 18">
        <path d="M0 18h18V0H0v18m16.6-1.4H1.4V1.4h15.2v15.2z"/>
    </svg>
</g>

<g id="fh_rect">
<svg xmlns:xlink="http://www.w3.org/1999/xlink" xmlns="http://www.w3.org/2000/svg" viewBox="0 0 52 52">
 <defs>
  <linearGradient y2="1" x2="1" y1="0.10156" x1="0.36328" id="svg_2">

   <stop stop-opacity="1" stop-color="#ffffff" offset="0"/>
   <stop stop-opacity="1" stop-color="#3b7e9b" offset="1"/>
  </linearGradient>
  <linearGradient y2="0.3945" x2="0.6132" y1="0.1093" x1="0.3046" id="svg_9">
   <stop stop-opacity="1" stop-color="#f9d225" offset="0"/>
   <stop stop-opacity="1" stop-color="#bf5f00" offset="1"/>
  </linearGradient>
 </defs>
  <rect stroke="#2f2f2c" stroke-width="2" fill="url(#svg_2)" id="svg_1" height="50" width="50" y="0.75" x="1.25"/>
  <path stroke-width="2" stroke="#2f2f2c" fill="url(#svg_9)" id="svg_2" d="m31.5,0l-8.75,20.25l0.75,24l16.5,-16.5l6,-12.5"/>
  <path stroke-width="2" stroke="#2f2f2c" fill="#fce0a9" id="svg_10" d="m39.5,28.5c-2,-9.25 -10.25,-11.75 -17,-7.4375l0.4843,24.4414z"/>
  <path id="svg_11" stroke-width="2" stroke="#2f2f2c" fill="#2f2f2c" d="m26.9318,41.1745c-0.4491,-2.3511 -2.3021,-2.9866 -3.8181,-1.8905l0.1087,6.2126z"/>
</svg>
</g>


<g id="circle">
<svg id="Untitled-Page%201" viewBox="0 0 27 27" style="background-color:#ffffff00" version="1.1"
	xmlns="http://www.w3.org/2000/svg" xmlns:xlink="http://www.w3.org/1999/xlink" xml:space="preserve"
	x="0px" y="0px" width="27px" height="27px"
>
	<path d="M 27 0 L 13.5 0 C 20.9559 0 27 6.0441 27 13.5 L 27 0 ZM 27 27 L 27 13.5 C 27 20.9559 20.9559 27 13.5 27 L 27 27 ZM 0 27 L 13.5 27 C 6.0441 27 0 20.9559 0 13.5 L 0 27 ZM 0 0 L 0 13.5 C 0 6.0441 6.0441 0 13.5 0 L 0 0 Z" fill="#2f2f2c"/>
</svg>
</g>

<g id="ellipse">
    <svg viewBox="0 0 18 18">
        <path d="M18 9q0-3.7-2.65-6.35Q12.65 0 8.95 0T2.6 2.65Q0 5.3 0 9q0 3.7 2.6 6.35Q5.25 18 8.95 18q3.7 0 6.4-2.65Q18 12.7 18 9m-3.6-5.35Q16.6 5.9 16.6 9q0 3.15-2.2 5.4-2.3 2.2-5.45 2.2-3.1 0-5.35-2.2Q1.4 12.15 1.4 9q0-3.1 2.2-5.35 2.25-2.2 5.35-2.2 3.15 0 5.45 2.2z"/>
    </svg>
</g>

<g id="fh_ellipse">
<svg viewBox="0 0 52 52" xmlns="http://www.w3.org/2000/svg" xmlns:xlink="http://www.w3.org/1999/xlink">
 <defs>
  <linearGradient id="svg_9" x1="0.3046" y1="0.1093" x2="0.6132" y2="0.3945">
   <stop offset="0" stop-color="#f9d225" stop-opacity="1"/>
   <stop offset="1" stop-color="#bf5f00" stop-opacity="1"/>
  </linearGradient>
  <linearGradient id="svg_4" x1="0.17188" y1="0.1875" x2="1" y2="1">
   <stop offset="0" stop-color="#ffffff" stop-opacity="1"/>
   <stop offset="1" stop-color="#ff6666" stop-opacity="1"/>
  </linearGradient>
 </defs>
  <ellipse stroke-width="2" stroke="#2f2f2c" fill="url(#svg_4)" id="svg_1" rx="23" ry="12" cy="37" cx="27"/>
  <path d="m31.5,0l-8.75,20.25l0.75,24l16.5,-16.5l6,-12.5" id="svg_2" fill="url(#svg_9)" stroke="#2f2f2c" stroke-width="2"/>
  <path d="m39.5,28.5c-2,-9.25 -10.25,-11.75 -17,-7.4375l0.4843,24.4414z" id="svg_10" fill="#fce0a9" stroke="#2f2f2c" stroke-width="2"/>
  <path d="m26.9318,41.1745c-0.4491,-2.3511 -2.3021,-2.9866 -3.8181,-1.8905l0.1087,6.2126z" fill="#2f2f2c" stroke="#2f2f2c" stroke-width="2" id="svg_11"/>
 </svg>
</g>

<g id="pencil">
<svg viewBox="0 0 24 24" version="1.1">
	<path fill="#2F2F2C" d="M-1.5-1.5v27h27v-27 M19.616,9.216L6.647,21.567l-5.531,1.285l-0.1-0.094l1.449-5.269L15.438,5.204
		c0.231-0.062,0.788-0.219,1.579-0.062L3.255,18.243l-0.394,1.381l1.58,1.504l1.481-0.375l0.66-0.598l0.065-1.408l-1.053-1.004
		L18.203,5.736c0.196,0.157,0.196,0.157,0.396,0.376C20.476,7.869,19.616,9.216,19.616,9.216z M22.87,4.9
		c-0.002,0.774-0.358,1.561-1.013,2.185l-1.217,1.16c0,0,0.921-1.348-0.989-3.103c-1.679-1.599-3.259-0.91-3.259-0.91l1.284-1.223
		c1.154-1.126,3.161-1.126,4.278-0.062c0.622,0.549,0.913,1.239,0.915,1.938V4.9z"/>
</svg>
</g>

<g id="pen">
<svg id="eye-Page%201" viewBox="0 0 27 27" style="background-color:#ffffff00" version="1.1"
	xmlns="http://www.w3.org/2000/svg" xmlns:xlink="http://www.w3.org/1999/xlink" xml:space="preserve"
	x="0px" y="0px" width="27px" height="27px"
>
	<path d="M 3 1 L 26 24 L 24 26 L 1 3 L 3 1 ZM 0 0 L 0 27 L 27 27 L 27 0 L 0 0 Z" fill="#2f2f2c"/>
</svg>
</g>

<g id="path">
    <svg viewBox="0 0 18 18">
        <path d="M6.85.2L5.3 1.75 4 .45Q3.55 0 2.9 0q-.7 0-1.15.45L.45 1.8Q0 2.25 0 2.95 0 3.6.45 4.1L1.7 5.4.2 7q-.2.2-.2.5t.2.5q.5.5.95 0l1.4-1.45 3.4 8.05L18 18 14.5 5.95 6.55 2.5 7.8 1.25q.55-.6 0-1.05-.2-.2-.45-.2-.3 0-.5.2m6 9.6q0-1.3-.85-2.15-.85-.9-2.2-.9t-2.2.9q-.9.9-.9 2.15 0 1.2.9 2.2 1 .95 2.15.95.85 0 1.65-.5l3.05 3.1L7 13.4 3.6 5.55 5.55 3.6l7.8 3.4 2.15 7.55-3.1-3.1q.45-.75.45-1.65M11 8.65q.45.45.45 1.15 0 .75-.45 1.2-.5.5-1.25.5-.65 0-1.15-.5-.5-.5-.5-1.2 0-.65.5-1.15V8.6q.45-.45 1.15-.45.8 0 1.25.5M3 1.5l1.3 1.25L2.7 4.4 1.45 3.1q-.1-.2 0-.3l1.3-1.3.15-.05.1.05z"/>
    </svg>
</g>


<g id="text">
<svg id="eye-Page%201" viewBox="0 0 27 27" style="background-color:#ffffff00" version="1.1"
	xmlns="http://www.w3.org/2000/svg" xmlns:xlink="http://www.w3.org/1999/xlink" xml:space="preserve"
	x="0px" y="0px" width="27px" height="27px"
>
	<path fill="#2F2F2C" d="M0,0v27h27V0H0z M7.283,25.258v-1.741h0.539c1.133,0,1.879-0.204,2.224-0.64c0.345-0.422,0.525-1.157,0.525-2.191V4.355H8.733c-1.105,0-1.906,0.123-2.417,0.367C5.791,4.967,5.362,5.443,5.017,6.151C4.658,6.873,4.451,7.73,4.381,8.709H2.613V2.613h21.774v6.097H22.48c-0.359-1.701-0.87-2.858-1.52-3.457s-1.686-0.898-3.108-0.898h-1.976v16.331c0,1.062,0.165,1.81,0.525,2.218c0.358,0.409,1.104,0.613,2.236,0.613h0.595v1.741H7.283z"/>
</svg>
</g>



<g id="add_subpath">
<svg xmlns="http://www.w3.org/2000/svg" viewBox="0 0 124 124" xmlns:xlink="http://www.w3.org/1999/xlink">
 <defs>
  <linearGradient id="svg_4" x1="0.33594" y1="0.28125" x2="1" y2="1">
   <stop offset="0" stop-color="#ffffff" stop-opacity="1"/>
   <stop offset="1" stop-color="#33a533" stop-opacity="1"/>
  </linearGradient>
 </defs>
 <g>
  <path d="m6,103l55,-87c85,33.64 -26,37.12 55,87l-110,0z" id="svg_1" fill="url(#svg_4)" stroke="#2f2f2c" stroke-width="4" stroke-dasharray="null"/>
  <g id="svg_7">
   <circle stroke-dasharray="null" stroke-width="5" stroke="#2f2f2c" fill="#ffffff" id="svg_6" r="22.63281" cy="88.5" cx="45.5"/>
   <line stroke-dasharray="null" stroke-width="7" stroke="#2f2f2c" id="svg_2" y2="104.03768" x2="45.5" y1="72.96232" x1="45.5"/>
   <line stroke-dasharray="null" stroke-width="7" stroke="#2f2f2c" id="svg_3" y2="88.5" x2="61.03768" y1="88.5" x1="29.96232"/>
  </g>
 </g>
 </svg>
</g>

<g id="close_path">
<svg viewBox="0 0 300 300" xmlns="http://www.w3.org/2000/svg" xmlns:xlink="http://www.w3.org/1999/xlink">
 <g>
  <path stroke="#000" stroke-width="15" fill="#ffc8c8" d="m121.5,40l-84,106l27,115l166,2l29,-111"/>
  <line x1="240" y1="136" x2="169.5" y2="74" stroke="#A00" stroke-width="25" fill="none"/>
  <path stroke="none" fill ="#A00" d="m158,65l31,74l-3,-50l51,-3z"/>
  <g stroke-width="15" stroke="#00f" fill="#0ff">
  <circle r="30" cy="41" cx="123"/>
  <circle r="30" cy="146" cx="40"/>
  <circle r="30" cy="260" cx="69"/>
  <circle r="30" cy="260" cx="228"/>
  <circle r="30" cy="148" cx="260"/>
  </g>
 </g>
</svg>
</g>

<g id="open_path">
    <svg viewBox="0 0 18 18">
        <path d="M17.4.55Q16.85 0 16 0q-.8 0-1.35.55-.6.6-.6 1.4 0 .7.5 1.3l-1.4 2.65h-.2q-.8 0-1.4.55-.55.6-.55 1.4 0 1.4 1.25 1.8v4.55q-.85.3-1.15 1.15H3.75q-.3-.85-1.1-1.15V9.65Q3.9 9.2 3.9 7.85q0-.8-.6-1.4-.55-.55-1.35-.55t-1.4.55Q0 7.05 0 7.85q0 1.4 1.25 1.8v4.55Q0 14.7 0 16.05q0 .8.55 1.35.6.6 1.4.6 1.25 0 1.8-1.25h7.35Q11.65 18 12.95 18q.8 0 1.35-.6.6-.55.6-1.35 0-1.3-1.25-1.85V9.65q1.25-.45 1.25-1.8 0-.7-.5-1.3l1.4-2.65h.2q.8 0 1.4-.6.6-.55.6-1.35t-.6-1.4z"/>
    </svg>
</g>

<g id="image">
<svg id="eye-Page%201" viewBox="0 0 27 27" style="background-color:#ffffff00" version="1.1"
	xmlns="http://www.w3.org/2000/svg" xmlns:xlink="http://www.w3.org/1999/xlink" xml:space="preserve"
	x="0px" y="0px" width="27px" height="27px"
>
	<g id="Layer%201">
			<path fill="#2F2F2C" d="M23.377,8.006H3.624v13.602h19.753V8.006z M19.849,9.676c0.91,0,1.646,0.748,1.646,1.67s-0.736,1.671-1.646,1.671c-0.908,0-1.646-0.749-1.646-1.671S18.94,9.676,19.849,9.676z M5.034,20.175L9.972,9.438l5.173,7.158l2.587-2.147l4.233,5.727H5.034z"/>
			<path fill="#2F2F2C" d="M0,0v27h27V0H0z M25.258,23.517H1.742V6.097h23.516V23.517z"/>
	</g>
</svg>
</g>

<g id="zoom">
    <svg viewBox="0 0 18 18">
        <path d="M12.65 11.6q1.6-1.9 1.6-4.45 0-2.95-2.1-5.05Q10.05 0 7.1 0q-2.95 0-5 2.1Q0 4.2 0 7.15q0 2.95 2.1 5 2.05 2.1 5 2.1 2.6 0 4.55-1.65l5.1 5.1q.6.6 1.05.05.45-.5-.05-1.05l-5.1-5.1m-1.5-8.5q1.7 1.65 1.7 4.05 0 2.35-1.7 4.05-1.7 1.65-4.05 1.65-2.35 0-4-1.65-1.7-1.7-1.7-4.05 0-2.4 1.7-4.05 1.65-1.7 4-1.7t4.05 1.7z"/>
    </svg>
</g>

<g id="arrow_right">
	<svg xmlns:xlink="http://www.w3.org/1999/xlink" xmlns="http://www.w3.org/2000/svg" viewBox="0 0 25 50">
	  <path stroke="none" fill="#ccc" d="m0,0l0,50l25,-25l-25,-25z"/>
	</svg>
</g>

<g id="arrow_right_big">
	<svg xmlns:xlink="http://www.w3.org/1999/xlink" xmlns="http://www.w3.org/2000/svg" viewBox="0 0 40 50">
	  <path stroke="none" fill="#ccc" d="m0,0l0,50l25,-25l-25,-25z"/>
	</svg>
</g>

<g id="arrow_down">
	<svg viewBox="0 0 50 40" xmlns="http://www.w3.org/2000/svg" xmlns:xlink="http://www.w3.org/1999/xlink">
	  <path transform="rotate(90, 26, 13)" d="m14,-12l0,50l25,-25l-25,-25z" fill="#ccc" stroke="none"/>
	</svg>
</g>

<g id="align_left">
    <svg viewBox="0 0 18 18">
        <path d="M17.2 10.6q-.85-.8-2-.8H2.8q-.7 0-1.35.4V7.4q.65.4 1.35.4h6.4q1.15 0 2-.8.8-.85.8-2t-.8-2q-.85-.8-2-.8H2.8q-.7 0-1.35.4V.7q0-.7-.7-.7Q0 0 0 .7v16.55q0 .3.25.55.2.2.5.2.25 0 .5-.2.2-.25.2-.55V15q.55.35 1.35.35h12.4q1.15 0 2-.8.8-.8.8-1.95t-.8-2m-2 .6q.55 0 .95.4.4.45.4 1t-.4.95q-.4.4-.95.4H2.8q-.55 0-.95-.35-.35-.4-.4-.95v-.15q.05-.55.4-.9.4-.4.95-.4h12.4M10.55 5q0 .55-.4 1-.4.4-.95.4H2.8q-.55 0-.95-.4-.35-.35-.4-.9v-.2q.05-.55.4-.9.4-.4.95-.4h6.4q.55 0 .95.4.4.45.4 1z"/>
    </svg>
</g>

<g id="align_center">
    <svg viewBox="0 0 18 18">
        <path d="M13 3.05q-1.1 0-1.95.8-.8.85-.8 1.95v2.45H8.2V2.8q0-1.15-.8-2Q6.6 0 5.45 0T3.4.8q-.8.8-.8 2v5.45H.7q-.7 0-.7.7t.7.7h1.9v5.55q0 1.15.8 2 .9.8 2.05.8t1.95-.8q.8-.85.8-2V9.65h2.05v2.55q0 1.15.8 2 .8.8 1.95.8t2-.8q.8-.85.8-2V9.65h1.5q.7 0 .7-.7t-.7-.7h-1.5V5.8q0-1.15-.8-1.95-.85-.8-2-.8M11.65 5.8q0-.55.4-.95.4-.4.95-.4.55 0 1 .4.4.4.4.95v6.4q0 .55-.4 1-.45.4-1 .4t-.95-.4q-.4-.45-.4-1V5.8m-5.25-4q.4.45.4 1v12.4q0 .55-.4 1-.4.4-.95.4-.6 0-1-.4-.45-.45-.45-1V2.8q0-.55.45-1 .4-.4 1-.4.55 0 .95.4z"/>
    </svg>
</g>

<g id="align_right">
    <svg viewBox="0 0 18 18">
        <path d="M18 .7q0-.7-.75-.7-.7 0-.7.7v1.9q-.65-.4-1.4-.4H8.8q-1.15 0-2 .8-.8.85-.8 2t.8 2q.85.8 2 .8h6.35q.75 0 1.4-.4v2.8q-.65-.4-1.4-.4H2.8q-1.15 0-2 .8-.8.85-.8 2t.8 1.95q.85.8 2 .8h12.35q.85 0 1.4-.35v2.25q0 .3.2.55.25.2.5.2.3 0 .55-.2.2-.25.2-.55V.7M16.1 4q.4.35.45.9v.2q-.05.55-.45.9-.4.4-.95.4H8.8q-.55 0-1-.4-.4-.45-.4-1t.4-1q.45-.4 1-.4h6.35q.55 0 .95.4m-.95 7.2q.55 0 .95.4.4.35.45.9v.15q-.05.55-.45.95-.35.35-.95.35H2.8q-.55 0-1-.4-.4-.4-.4-.95 0-.55.4-1 .45-.4 1-.4h12.35z"/>
    </svg>
</g>

<g id="align_top">
    <svg viewBox="0 0 18 18">
        <path d="M18 .7q0-.7-.7-.7H.7Q0 0 0 .7t.7.7h1.9q-.4.7-.4 1.45v6.3q0 1.15.8 2.05.85.8 2 .8t1.95-.8q.8-.9.8-2.05v-6.3q0-.7-.35-1.45h2.8q-.35.75-.35 1.45V15.2q0 1.15.8 2 .8.8 1.95.8t2-.8q.8-.85.8-2V2.85q0-.75-.4-1.45h2.3q.7 0 .7-.7m-6.75 2.15q0-.55.35-.95.4-.45.95-.5h.15q.55.05.9.5.4.4.4.95V15.2q0 .6-.4 1t-1 .4q-.55 0-.95-.4-.4-.4-.4-1V2.85M6 1.9q.35.4.35.95v6.3q0 .6-.4 1t-.95.4q-.6 0-1-.4t-.4-1v-6.3q0-.55.4-.95.35-.45.9-.5h.15q.55.05.95.5z"/>
    </svg>
</g>

<g id="align_middle">
    <svg viewBox="0 0 18 18">
        <path d="M14.2 3.05q-.85-.8-2-.8H9.7V.7Q9.7 0 9 0t-.7.7v1.55H5.85q-1.15 0-2.05.8-.8.85-.8 2t.8 2q.9.8 2.05.8H8.3v2H2.8q-1.15 0-2 .8-.8.85-.8 2t.8 1.95q.85.8 2 .8h5.5v1.9q0 .7.7.7t.7-.7v-1.9h5.5q1.15 0 2-.8.8-.8.8-1.95t-.8-2q-.85-.8-2-.8H9.7v-2h2.5q1.15 0 2-.8.8-.85.8-2t-.8-2m-2 .6q.55 0 .95.4.4.45.4 1t-.4.95q-.4.4-.95.4H5.85q-.55 0-.95-.4-.4-.4-.4-.95 0-.55.4-1 .4-.4.95-.4h6.35m3 7.6q.55 0 .95.4.4.4.4 1 0 .55-.4.95-.4.4-.95.4H2.8q-.55 0-.95-.4-.4-.4-.4-.95 0-.6.4-1t.95-.4h12.4z"/>
    </svg>
</g>

<g id="align_bottom">
    <svg viewBox="0 0 18 18">
        <path d="M10.95 6.85q-.8.8-.8 1.95v6.4q0 .7.4 1.4H7.8q.35-.8.35-1.4V2.8q0-1.2-.8-2-.85-.8-2-.8-1.1 0-1.95.8-.8.85-.8 2v12.4q0 .6.35 1.4H.7q-.7 0-.7.7t.7.7h16.6q.7 0 .7-.7t-.7-.7h-1.9q.4-.7.4-1.4V8.8q0-1.15-.85-1.95t-2-.8q-1.15 0-2 .8m3 1q.4.4.4.95v6.4q0 .55-.4.95-.35.4-.9.45h-.15q-.55-.05-.95-.45-.4-.4-.4-.95V8.8q0-.55.4-.95.45-.4 1-.4t1 .4M4 2.8q0-.6.4-1t.95-.4q.6 0 1 .4t.4 1v12.4q0 .55-.35.95-.4.4-.95.45H5.3q-.55-.05-.95-.45-.35-.4-.35-.95V2.8z"/>
    </svg>
</g>

<g id="font_letter">
    <svg viewBox="0 0 18 18">
        <polygon points="0,0 0,3.9 1.4,3.9 1.4,1.4 8.5,1.4 8.5,18 9.9,18 9.9,1.4 16.6,1.4 16.6,3.9 18,3.9 18,0" />
    </svg>
</g>

<g id="linecap_butt">
<svg width="100" height="100" xmlns="http://www.w3.org/2000/svg" xmlns:se="http://svg-edit.googlecode.com" xmlns:xlink="http://www.w3.org/1999/xlink">
 <!-- Created with SVG-edit - http://svg-edit.googlecode.com/ -->
 <defs>
  <linearGradient id="svg_8" x1="0.8" y1="1" x2="0.2" y2="1">
   <stop offset="0" stop-color="#2f2f2c" stop-opacity="1"/>
   <stop offset="1" stop-color="#2f2f2c" stop-opacity="0"/>
  </linearGradient>
 </defs>
 <g>
  <rect fill="url(#svg_8)" stroke="#a0a0a0" stroke-width="2" x="-15.20196" y="43.5974" width="94.8373" height="50.3728" id="svg_3" transform="rotate(-45, 32.2148, 68.7832)"/>
  <path id="svg_1" d="m6.63133,95.07755l59.17514,-59.17514" stroke-width="3" stroke="#00ffff" fill="none"/>
  <path id="svg_2" d="m51.62893,36.10742l13.05662,-13.05662l13.05661,13.05662l-13.05661,13.05662l-13.05662,-13.05662z" stroke="none" fill="#00ffff"/>
 </g>
</svg>
</g>

<g id="linecap_square">
<svg width="100" height="100" xmlns="http://www.w3.org/2000/svg" xmlns:se="http://svg-edit.googlecode.com" xmlns:xlink="http://www.w3.org/1999/xlink">
 <!-- Created with SVG-edit - http://svg-edit.googlecode.com/ -->
 <defs>
  <linearGradient id="svg_8" x1="0.8" y1="1" x2="0.2" y2="1">
   <stop offset="0" stop-color="#2f2f2c" stop-opacity="1"/>
   <stop offset="1" stop-color="#2f2f2c" stop-opacity="0"/>
  </linearGradient>
 </defs>
 <g>
  <rect fill="url(#svg_8)" stroke="none" x="-18.51568" y="35.5974" width="117.46469" height="50.3728" id="svg_3" transform="rotate(-45, 40.2168, 60.7832)"/>
  <path id="svg_1" d="m6.63133,95.07755l59.17514,-59.17514" stroke-width="3" stroke="#00ffff" fill="none"/>
  <path id="svg_2" d="m51.62893,36.10742l13.05662,-13.05662l13.05661,13.05662l-13.05661,13.05662l-13.05662,-13.05662z" stroke="none" fill="#00ffff"/>
 </g>
</svg>
</g>

<g id="linecap_round">
<svg width="100" height="100" xmlns="http://www.w3.org/2000/svg" xmlns:xlink="http://www.w3.org/1999/xlink" xmlns:se="http://svg-edit.googlecode.com">
 <!-- Created with SVG-edit - http://svg-edit.googlecode.com/ -->
 <defs>
  <linearGradient y2="1" x2="0.2" y1="1" x1="0.8" id="svg_8">
   <stop stop-opacity="1" stop-color="#2f2f2c" offset="0"/>
   <stop stop-opacity="0" stop-color="#2f2f2c" offset="1"/>
  </linearGradient>
 </defs>
 <g>
  <path transform="rotate(-45, 41.5117, 59.4648)" id="svg_3" d="m-19.0679,34.2946l94.8359,0c36.499,-1.4142 33.67101,48.9569 0,50.3711l-94.8359,0l0,-50.3711z" stroke-width="2" stroke="#a0a0a0" fill="url(#svg_8)"/>
  <path id="svg_1" d="m6.63133,95.07755l59.17515,-59.17515" stroke-width="3" stroke="#00ffff" fill="none"/>
  <path id="svg_2" d="m51.62893,36.10742l13.05662,-13.05662l13.05661,13.05662l-13.05661,13.05662l-13.05662,-13.05662z" stroke="none" fill="#00ffff"/>
 </g>
</svg>
</g>

<g id="linejoin_miter">
<svg width="100" height="100" xmlns="http://www.w3.org/2000/svg" xmlns:xlink="http://www.w3.org/1999/xlink" xmlns:se="http://svg-edit.googlecode.com">
 <!-- Created with SVG-edit - http://svg-edit.googlecode.com/ -->
 <defs>
  <linearGradient y2="1" x2="0.2" y1="1" x1="0.8" id="svg_8">
   <stop stop-opacity="1" stop-color="#2f2f2c" offset="0"/>
   <stop stop-opacity="0" stop-color="#2f2f2c" offset="1"/>
  </linearGradient>
 </defs>
 <g>
  <path fill="none" stroke="url(#svg_8)" stroke-width="49" d="m-15,-35l75,85l-75,75" id="svg_6"/>
  <path transform="rotate(90, 57.8925, 50.2519)" fill="#00ffff" stroke="none" d="m44.83592,50.25187l13.05661,-13.05663l13.05661,13.05663l-13.05661,13.05662l-13.05661,-13.05662z" id="svg_2"/>
  <path id="svg_4" d="m-15,-35l75,85l-75,75" stroke-width="3" stroke="#00ffff" fill="none"/>
 </g>
</svg>
</g>

<g id="linejoin_bevel">
<svg width="100" height="100" xmlns="http://www.w3.org/2000/svg" xmlns:xlink="http://www.w3.org/1999/xlink" xmlns:se="http://svg-edit.googlecode.com">
 <!-- Created with SVG-edit - http://svg-edit.googlecode.com/ -->
 <defs>
  <linearGradient y2="1" x2="0.2" y1="1" x1="0.8" id="svg_8">
   <stop stop-opacity="1" stop-color="#2f2f2c" offset="0"/>
   <stop stop-opacity="0" stop-color="#2f2f2c" offset="1"/>
  </linearGradient>
 </defs>
 <g>
  <path stroke-linejoin="bevel" fill="none" stroke="url(#svg_8)" stroke-width="49" d="m-15,-35l75,85l-75,75" id="svg_6"/>
  <path transform="rotate(90, 57.8925, 50.2519)" fill="#00ffff" stroke="none" d="m44.83592,50.25187l13.05661,-13.05663l13.05661,13.05663l-13.05661,13.05662l-13.05661,-13.05662z" id="svg_2"/>
  <path id="svg_4" d="m-15,-35l75,85l-75,75" stroke-width="3" stroke="#00ffff" fill="none"/>
 </g>
</svg>
</g>

<g id="linejoin_round">
<svg width="100" height="100" xmlns="http://www.w3.org/2000/svg" xmlns:xlink="http://www.w3.org/1999/xlink" xmlns:se="http://svg-edit.googlecode.com">
 <!-- Created with SVG-edit - http://svg-edit.googlecode.com/ -->
 <defs>
  <linearGradient y2="1" x2="0.2" y1="1" x1="0.8" id="svg_8">
   <stop stop-opacity="1" stop-color="#2f2f2c" offset="0"/>
   <stop stop-opacity="0" stop-color="#2f2f2c" offset="1"/>
  </linearGradient>
 </defs>
 <g>
  <path stroke-linejoin="round" fill="none" stroke="url(#svg_8)" stroke-width="49" d="m-15,-35l75,85l-75,75" id="svg_6"/>
  <path transform="rotate(90, 57.8925, 50.2519)" fill="#00ffff" stroke="none" d="m44.83592,50.25187l13.05661,-13.05663l13.05661,13.05663l-13.05661,13.05662l-13.05661,-13.05662z" id="svg_2"/>
  <path id="svg_4" d="m-15,-35l75,85l-75,75" stroke-width="3" stroke="#00ffff" fill="none"/>
 </g>
</svg>
</g>


<g id="no_color">
	<svg xmlns:xlink="http://www.w3.org/1999/xlink" xmlns="http://www.w3.org/2000/svg" viewBox="0 0 24 24">
	  <line fill="none" stroke="#d40000" id="svg_90" y2="24" x2="24" y1="0" x1="0"/>
	  <line id="svg_92" fill="none" stroke="#d40000" y2="24" x2="0" y1="0" x1="24"/>
	</svg>
</g>


<g id="node_delete">
    <svg viewBox="0 0 18 18">
        <path d="M15.1 9q0-2.55-1.8-4.35-1.8-1.8-4.3-1.8-2.2 0-3.8 1.35L3.7 2.75q.2-.5.2-.8 0-.8-.6-1.4Q2.75 0 1.95 0T.55.55Q0 1.15 0 1.95q0 .8.55 1.35.6.6 1.4.6.45 0 .75-.15L4.2 5.2Q2.85 6.85 2.85 9q0 2.5 1.8 4.3 1.8 1.8 4.35 1.8 2.15 0 3.75-1.3l1.5 1.45q-.2.5-.2.8 0 .8.6 1.35.55.6 1.35.6t1.4-.6q.6-.55.6-1.35t-.6-1.4q-.55-.55-1.4-.55-.45 0-.75.15l-1.5-1.45Q15.1 11.15 15.1 9m-2.75-3.3Q13.7 7.05 13.7 9q0 1.95-1.35 3.35Q10.95 13.7 9 13.7q-2 0-3.35-1.35-1.4-1.4-1.4-3.35 0-1.95 1.4-3.3Q7 4.3 9 4.3q1.95 0 3.35 1.4m-.4 2.65H6q-.7 0-.7.7t.7.7h5.95q.7 0 .7-.7t-.7-.7z"/>
    </svg>
</g>

<g id="node_clone">
    <svg viewBox="0 0 18 18">
        <path d="M15.1 9q0-2.55-1.8-4.35-1.8-1.8-4.3-1.8-2.2 0-3.8 1.35L3.7 2.75q.2-.5.2-.8 0-.8-.6-1.4Q2.75 0 1.95 0T.55.55Q0 1.15 0 1.95q0 .8.55 1.35.6.6 1.4.6.45 0 .75-.15L4.2 5.2Q2.85 6.85 2.85 9q0 2.5 1.8 4.3 1.8 1.8 4.35 1.8 2.15 0 3.75-1.3l1.5 1.45q-.2.5-.2.8 0 .8.6 1.35.55.6 1.35.6t1.4-.6q.6-.55.6-1.35t-.6-1.4q-.55-.55-1.4-.55-.45 0-.75.15l-1.5-1.45Q15.1 11.15 15.1 9m-1.4 0q0 1.95-1.35 3.35Q10.95 13.7 9 13.7q-2 0-3.35-1.35-1.4-1.4-1.4-3.35 0-1.95 1.4-3.3Q7 4.3 9 4.3q1.95 0 3.35 1.4Q13.7 7.05 13.7 9m-1.75.75q.7 0 .7-.7t-.7-.7H9.7v-2.3q0-.25-.2-.5-.25-.2-.5-.2-.3 0-.5.2-.25.25-.25.5v2.3H6q-.7 0-.7.7t.7.7h2.25V12q0 .7.75.7.7 0 .7-.7V9.75h2.25z"/>
    </svg>
</g>



<g id="svg_eof"/>

</svg>
