<svg xmlns="http://www.w3.org/2000/svg">
<!-- All images created with SVG-edit - http://svg-edit.googlecode.com/ -->























<g id="logo">
<svg viewBox="0 0 16 16" version="1.1">
  <path id="svg_7" d="m-0.0965,16.1043l16.10001,-16.06917l-0.00001,16.06917l-16.1,0z" stroke-linecap="null" stroke-linejoin="null" stroke-dasharray="null" stroke-width="1.5" fill="#cccccc"/>
  <path id="svg_6" d="m0.0035,16.10449l0,-15.99999l16,15.99999l-16,0z" stroke-linecap="null" stroke-linejoin="null" stroke-dasharray="null" stroke-width="1.5" fill="#666666"/>
 </svg>
</g>



<g id="select">
    <svg viewBox="0 0 100 100">
        <path d="M99.1 33.7q-.9-1.35-2.45-1.9L6.5.3Q5.15-.2 3.85.15 2.45.4 1.4 1.45q-1 1-1.3 2.4-.3 1.35.15 2.7l31.55 90.1q.55 1.55 1.9 2.45 1.4 1 3 .9 1.95-.15 3.25-1.45 1-1 1.3-2.35l6.55-48.35 48.4-6.6q1.6-.4 2.65-1.65 1.05-1.2 1.15-2.9.1-1.6-.9-3m-55.5 9.9q-1 .95-1.3 2.3l-6.2 45.55L6.3 6.3l85.1 29.8-45.5 6.2q-1.35.35-2.3 1.3z" />
    </svg>
</g>



<g id="select_node">
<svg viewBox="0 0 24 24" version="1.1">
	<g>
	<path fill="none" d="M6.67,5.202l8.314,7.482l-4.158,0.831L6.67,16.841V5.202z"/>
	<polygon fill="#302F2C" points="14.984,12.684 6.67,5.202 6.67,16.841 10.827,13.515 	"/>
	<path fill="#302F2C" d="M0,24h24V0H0V24z M5.008,0.213L20.14,13.515l-4.987,1.663l3.325,6.651l-3.325,1.663l-4.157-6.651
		l-5.988,3.325V0.213z"/>
	</g>
</svg>
</g>


<g id="rect">
    <svg viewBox="0 0 100 65">
        <path d="M100 65V0H0v65h100M95 4.95V60H4.95V4.95H95z" />
    </svg>
</g>

<g id="fh_rect">
<svg xmlns:xlink="http://www.w3.org/1999/xlink" xmlns="http://www.w3.org/2000/svg" viewBox="0 0 52 52">
 <defs>
  <linearGradient y2="1" x2="1" y1="0.10156" x1="0.36328" id="svg_2">

   <stop stop-opacity="1" stop-color="#ffffff" offset="0"/>
   <stop stop-opacity="1" stop-color="#3b7e9b" offset="1"/>
  </linearGradient>
  <linearGradient y2="0.3945" x2="0.6132" y1="0.1093" x1="0.3046" id="svg_9">
   <stop stop-opacity="1" stop-color="#f9d225" offset="0"/>
   <stop stop-opacity="1" stop-color="#bf5f00" offset="1"/>
  </linearGradient>
 </defs>
  <rect stroke="#2f2f2c" stroke-width="2" fill="url(#svg_2)" id="svg_1" height="50" width="50" y="0.75" x="1.25"/>
  <path stroke-width="2" stroke="#2f2f2c" fill="url(#svg_9)" id="svg_2" d="m31.5,0l-8.75,20.25l0.75,24l16.5,-16.5l6,-12.5"/>
  <path stroke-width="2" stroke="#2f2f2c" fill="#fce0a9" id="svg_10" d="m39.5,28.5c-2,-9.25 -10.25,-11.75 -17,-7.4375l0.4843,24.4414z"/>
  <path id="svg_11" stroke-width="2" stroke="#2f2f2c" fill="#2f2f2c" d="m26.9318,41.1745c-0.4491,-2.3511 -2.3021,-2.9866 -3.8181,-1.8905l0.1087,6.2126z"/>
</svg>
</g>


<g id="circle">
<svg id="Untitled-Page%201" viewBox="0 0 27 27" style="background-color:#ffffff00" version="1.1"
	xmlns="http://www.w3.org/2000/svg" xmlns:xlink="http://www.w3.org/1999/xlink" xml:space="preserve"
	x="0px" y="0px" width="27px" height="27px"
>
	<path d="M 27 0 L 13.5 0 C 20.9559 0 27 6.0441 27 13.5 L 27 0 ZM 27 27 L 27 13.5 C 27 20.9559 20.9559 27 13.5 27 L 27 27 ZM 0 27 L 13.5 27 C 6.0441 27 0 20.9559 0 13.5 L 0 27 ZM 0 0 L 0 13.5 C 0 6.0441 6.0441 0 13.5 0 L 0 0 Z" fill="#2f2f2c"/>
</svg>
</g>

<g id="ellipse">
    <svg viewBox="0 0 100 81">
        <path d="M100 40.5q0-16.7-14.65-28.65Q70.65 0 50 0 29.3 0 14.7 11.85 0 23.8 0 40.5q0 16.8 14.7 28.6Q29.3 81 50 81q20.65 0 35.35-11.9Q100 57.3 100 40.5M81.8 15.45q13.15 10.4 13.15 25.05 0 14.7-13.15 25.1Q68.6 76 50 76T18.2 65.6Q5.05 55.2 5.05 40.5q0-14.65 13.15-25.05Q31.4 5 50 5t31.8 10.45z" />
    </svg>
</g>

<g id="fh_ellipse">
<svg viewBox="0 0 52 52" xmlns="http://www.w3.org/2000/svg" xmlns:xlink="http://www.w3.org/1999/xlink">
 <defs>
  <linearGradient id="svg_9" x1="0.3046" y1="0.1093" x2="0.6132" y2="0.3945">
   <stop offset="0" stop-color="#f9d225" stop-opacity="1"/>
   <stop offset="1" stop-color="#bf5f00" stop-opacity="1"/>
  </linearGradient>
  <linearGradient id="svg_4" x1="0.17188" y1="0.1875" x2="1" y2="1">
   <stop offset="0" stop-color="#ffffff" stop-opacity="1"/>
   <stop offset="1" stop-color="#ff6666" stop-opacity="1"/>
  </linearGradient>
 </defs>
  <ellipse stroke-width="2" stroke="#2f2f2c" fill="url(#svg_4)" id="svg_1" rx="23" ry="12" cy="37" cx="27"/>
  <path d="m31.5,0l-8.75,20.25l0.75,24l16.5,-16.5l6,-12.5" id="svg_2" fill="url(#svg_9)" stroke="#2f2f2c" stroke-width="2"/>
  <path d="m39.5,28.5c-2,-9.25 -10.25,-11.75 -17,-7.4375l0.4843,24.4414z" id="svg_10" fill="#fce0a9" stroke="#2f2f2c" stroke-width="2"/>
  <path d="m26.9318,41.1745c-0.4491,-2.3511 -2.3021,-2.9866 -3.8181,-1.8905l0.1087,6.2126z" fill="#2f2f2c" stroke="#2f2f2c" stroke-width="2" id="svg_11"/>
 </svg>
</g>

<g id="pencil">
<svg viewBox="0 0 24 24" version="1.1">
	<path fill="#2F2F2C" d="M-1.5-1.5v27h27v-27 M19.616,9.216L6.647,21.567l-5.531,1.285l-0.1-0.094l1.449-5.269L15.438,5.204
		c0.231-0.062,0.788-0.219,1.579-0.062L3.255,18.243l-0.394,1.381l1.58,1.504l1.481-0.375l0.66-0.598l0.065-1.408l-1.053-1.004
		L18.203,5.736c0.196,0.157,0.196,0.157,0.396,0.376C20.476,7.869,19.616,9.216,19.616,9.216z M22.87,4.9
		c-0.002,0.774-0.358,1.561-1.013,2.185l-1.217,1.16c0,0,0.921-1.348-0.989-3.103c-1.679-1.599-3.259-0.91-3.259-0.91l1.284-1.223
		c1.154-1.126,3.161-1.126,4.278-0.062c0.622,0.549,0.913,1.239,0.915,1.938V4.9z"/>
</svg>
</g>

<g id="pen">
<svg id="eye-Page%201" viewBox="0 0 27 27" style="background-color:#ffffff00" version="1.1"
	xmlns="http://www.w3.org/2000/svg" xmlns:xlink="http://www.w3.org/1999/xlink" xml:space="preserve"
	x="0px" y="0px" width="27px" height="27px"
>
	<path d="M 3 1 L 26 24 L 24 26 L 1 3 L 3 1 ZM 0 0 L 0 27 L 27 27 L 27 0 L 0 0 Z" fill="#2f2f2c"/>
</svg>
</g>

<g id="path">
    <svg viewBox="0 0 100 100">
        <path d="M83.35 98.35L98.3 83.4q1.3-1.25 1.6-3.1.3-1.8-.4-3.45l-27-59.1q-1.25-2.8-3.6-4.65-2.45-1.9-5.35-2.55L6.7.15q-2.8-.6-5 1.5Q-.45 3.8.1 6.75l10.45 56.8q.6 2.95 2.5 5.3 1.95 2.4 4.65 3.6l59.1 27.1q1.7.7 3.5.35 1.8-.3 3.05-1.55M66.95 48.9q0-7.6-5.25-12.85-4.7-4.7-11.3-5.2-6.55-.55-11.9 3.15L12 7.55l50.2 9.25q3.1.7 4.5 3.6l26.85 58.75-14.45 14.4L20.4 66.7q-3-1.35-3.65-4.4L7.55 12 34 38.45q-3.7 5.4-3.2 11.95.5 6.6 5.2 11.3Q41.35 67 48.85 67q7.55.05 12.85-5.2l.05-.1q5.3-5.25 5.2-12.8m-18.1-11.8q4.9 0 8.35 3.45 3.4 3.45 3.5 8.35 0 4.9-3.45 8.35-3.5 3.45-8.4 3.45-4.9-.05-8.3-3.5-3.45-3.4-3.45-8.3t3.35-8.4q3.5-3.4 8.4-3.4z" />
    </svg>
</g>


<g id="text">
<svg id="eye-Page%201" viewBox="0 0 27 27" style="background-color:#ffffff00" version="1.1"
	xmlns="http://www.w3.org/2000/svg" xmlns:xlink="http://www.w3.org/1999/xlink" xml:space="preserve"
	x="0px" y="0px" width="27px" height="27px"
>
	<path fill="#2F2F2C" d="M0,0v27h27V0H0z M7.283,25.258v-1.741h0.539c1.133,0,1.879-0.204,2.224-0.64c0.345-0.422,0.525-1.157,0.525-2.191V4.355H8.733c-1.105,0-1.906,0.123-2.417,0.367C5.791,4.967,5.362,5.443,5.017,6.151C4.658,6.873,4.451,7.73,4.381,8.709H2.613V2.613h21.774v6.097H22.48c-0.359-1.701-0.87-2.858-1.52-3.457s-1.686-0.898-3.108-0.898h-1.976v16.331c0,1.062,0.165,1.81,0.525,2.218c0.358,0.409,1.104,0.613,2.236,0.613h0.595v1.741H7.283z"/>
</svg>
</g>



<g id="add_subpath">
<svg xmlns="http://www.w3.org/2000/svg" viewBox="0 0 124 124" xmlns:xlink="http://www.w3.org/1999/xlink">
 <defs>
  <linearGradient id="svg_4" x1="0.33594" y1="0.28125" x2="1" y2="1">
   <stop offset="0" stop-color="#ffffff" stop-opacity="1"/>
   <stop offset="1" stop-color="#33a533" stop-opacity="1"/>
  </linearGradient>
 </defs>
 <g>
  <path d="m6,103l55,-87c85,33.64 -26,37.12 55,87l-110,0z" id="svg_1" fill="url(#svg_4)" stroke="#2f2f2c" stroke-width="4" stroke-dasharray="null"/>
  <g id="svg_7">
   <circle stroke-dasharray="null" stroke-width="5" stroke="#2f2f2c" fill="#ffffff" id="svg_6" r="22.63281" cy="88.5" cx="45.5"/>
   <line stroke-dasharray="null" stroke-width="7" stroke="#2f2f2c" id="svg_2" y2="104.03768" x2="45.5" y1="72.96232" x1="45.5"/>
   <line stroke-dasharray="null" stroke-width="7" stroke="#2f2f2c" id="svg_3" y2="88.5" x2="61.03768" y1="88.5" x1="29.96232"/>
  </g>
 </g>
 </svg>
</g>

<g id="close_path">
<svg viewBox="0 0 300 300" xmlns="http://www.w3.org/2000/svg" xmlns:xlink="http://www.w3.org/1999/xlink">
 <g>
  <path stroke="#000" stroke-width="15" fill="#ffc8c8" d="m121.5,40l-84,106l27,115l166,2l29,-111"/>
  <line x1="240" y1="136" x2="169.5" y2="74" stroke="#A00" stroke-width="25" fill="none"/>
  <path stroke="none" fill ="#A00" d="m158,65l31,74l-3,-50l51,-3z"/>
  <g stroke-width="15" stroke="#00f" fill="#0ff">
  <circle r="30" cy="41" cx="123"/>
  <circle r="30" cy="146" cx="40"/>
  <circle r="30" cy="260" cx="69"/>
  <circle r="30" cy="260" cx="228"/>
  <circle r="30" cy="148" cx="260"/>
  </g>
 </g>
</svg>
</g>

<g id="open_path">
<svg viewBox="0 0 300 300" xmlns="http://www.w3.org/2000/svg" xmlns:xlink="http://www.w3.org/1999/xlink">
 <g>
  <path stroke="#000" stroke-width="15" fill="#ffc8c8" d="m123.5,38l-84,106l27,115l166,2l29,-111"/>
  <line x1="276.5" y1="153" x2="108.5" y2="24" stroke="#000" stroke-width="10" fill="none"/>
  <g stroke-width="15" stroke="#00f" fill="#0ff">
   <circle r="30" cy="41" cx="123"/>
   <circle r="30" cy="146" cx="40"/>
   <circle r="30" cy="260" cx="69"/>
   <circle r="30" cy="260" cx="228"/>
   <circle r="30" cy="148" cx="260"/>
  </g>
  <g  stroke="#A00" stroke-width="15" fill="none">
   <line x1="168" y1="24" x2="210" y2="150"/>
   <line x1="210" y1="24" x2="168" y2="150"/>
  </g>
 </g>
</svg>
</g>


<g id="image">
<svg id="eye-Page%201" viewBox="0 0 27 27" style="background-color:#ffffff00" version="1.1"
	xmlns="http://www.w3.org/2000/svg" xmlns:xlink="http://www.w3.org/1999/xlink" xml:space="preserve"
	x="0px" y="0px" width="27px" height="27px"
>
	<g id="Layer%201">
			<path fill="#2F2F2C" d="M23.377,8.006H3.624v13.602h19.753V8.006z M19.849,9.676c0.91,0,1.646,0.748,1.646,1.67s-0.736,1.671-1.646,1.671c-0.908,0-1.646-0.749-1.646-1.671S18.94,9.676,19.849,9.676z M5.034,20.175L9.972,9.438l5.173,7.158l2.587-2.147l4.233,5.727H5.034z"/>
			<path fill="#2F2F2C" d="M0,0v27h27V0H0z M25.258,23.517H1.742V6.097h23.516V23.517z"/>
	</g>
</svg>
</g>

<g id="zoom">
    <svg viewBox="0 0 100 100">
        <path d="M100 97.5q0-1.05-.7-1.8l-31.05-31q5.25-5.9 7.7-13.35 2.65-7.8 1.9-16.1-1.3-13.9-11.35-23.85Q56.4 1.45 42.5.2 24.3-1.45 11.45 11.45-1.4 24.3.2 42.55q1.2 13.9 11.2 23.95 9.9 10 23.85 11.3 8.3.75 16.05-1.85 7.45-2.45 13.4-7.7l31.05 31q.75.75 1.8.75 1 0 1.75-.75.7-.75.7-1.75M63 14.95q9.95 10 9.95 24.05T63 62.95q-9.95 10-24 10t-24-10Q5 53.05 5 39q0-14.05 10-24.05 9.9-9.9 24-9.9 14.05 0 24 9.9z" />
    </svg>
</g>

<g id="arrow_right">
	<svg xmlns:xlink="http://www.w3.org/1999/xlink" xmlns="http://www.w3.org/2000/svg" viewBox="0 0 25 50">
	  <path stroke="none" fill="#ccc" d="m0,0l0,50l25,-25l-25,-25z"/>
	</svg>
</g>

<g id="arrow_right_big">
	<svg xmlns:xlink="http://www.w3.org/1999/xlink" xmlns="http://www.w3.org/2000/svg" viewBox="0 0 40 50">
	  <path stroke="none" fill="#ccc" d="m0,0l0,50l25,-25l-25,-25z"/>
	</svg>
</g>

<g id="arrow_down">
	<svg viewBox="0 0 50 40" xmlns="http://www.w3.org/2000/svg" xmlns:xlink="http://www.w3.org/1999/xlink">
	  <path transform="rotate(90, 26, 13)" d="m14,-12l0,50l25,-25l-25,-25z" fill="#ccc" stroke="none"/>
	</svg>
</g>

<g id="align_left">
	<svg viewBox="0 0 27 27"  version="1.1"
		xmlns="http://www.w3.org/2000/svg" xmlns:xlink="http://www.w3.org/1999/xlink" xml:space="preserve"
		x="0px" y="0px" width="27px" height="27px"
	>
		<path d="M 2 1 L 2 5 L 14 5 L 14 11 L 2 11 L 2 16 L 20 16 L 20 22 L 2 22 L 2 26 L 1 26 L 1 1 L 2 1 ZM 27 0 L 0 0 L 0 27 L 27 27 L 27 0 Z" fill="#3f3f3c"/>
	</svg>
</g>

<g id="align_center">
	<svg viewBox="0 0 27 27" style="background-color:#ffffff00" version="1.1"
		xmlns="http://www.w3.org/2000/svg" xmlns:xlink="http://www.w3.org/1999/xlink" xml:space="preserve"
		x="0px" y="0px" width="27px" height="27px">
			<path d="M 13 1 L 14 1 L 14 6 L 22 6 L 22 12 L 14 12 L 14 15 L 19 15 L 19 21 L 14 21 L 14 26 L 13 26 L 13 21 L 8 21 L 8 15 L 13 15 L 13 12 L 5 12 L 5 6 L 13 6 L 13 1 ZM 0 0 L 0 27 L 27 27 L 27 0 L 0 0 Z" fill="#3f3f3c"/>

	</svg>
</g>

<g id="align_right">
	<svg viewBox="0 0 27 27" style="background-color:#ffffff00" version="1.1"
		xmlns="http://www.w3.org/2000/svg" xmlns:xlink="http://www.w3.org/1999/xlink" xml:space="preserve"
		x="0px" y="0px" width="27px" height="27px"
	>
		<path d="M 25 1 L 25 5 L 13 5 L 13 11 L 25 11 L 25 16 L 7 16 L 7 22 L 25 22 L 25 26 L 26 26 L 26 1 L 25 1 ZM 0 0 L 27 0 L 27 27 L 0 27 L 0 0 Z" fill="#3f3f3c"/>
	</svg>
</g>

<g id="align_top">
	<svg id="Untitled-Page%201" viewBox="0 0 27 27" style="background-color:#ffffff00" version="1.1"
		xmlns="http://www.w3.org/2000/svg" xmlns:xlink="http://www.w3.org/1999/xlink" xml:space="preserve"
		x="0px" y="0px" width="27px" height="27px"
	>
		<path d="M 1 2 L 5 2 L 5 14 L 11 14 L 11 2 L 16 2 L 16 20 L 22 20 L 22 2 L 26 2 L 26 1 L 1 1 L 1 2 ZM 0 27 L 0 0 L 27 0 L 27 27 L 0 27 Z" fill="#3f3f3c"/>
	</svg>
</g>

<g id="align_middle">
<svg id="Untitled-Page%201" viewBox="0 0 27 27" style="background-color:#ffffff00" version="1.1"
	xmlns="http://www.w3.org/2000/svg" xmlns:xlink="http://www.w3.org/1999/xlink" xml:space="preserve"
	x="0px" y="0px" width="27px" height="27px"
>
	<path d="M 26 13 L 26 14 L 21 14 L 21 22 L 15 22 L 15 14 L 12 14 L 12 19 L 6 19 L 6 14 L 1 14 L 1 13 L 6 13 L 6 8 L 12 8 L 12 13 L 15 13 L 15 5 L 21 5 L 21 13 L 26 13 ZM 27 0 L 0 0 L 0 27 L 27 27 L 27 0 Z" fill="#3f3f3c"/>
</svg>
</g>

<g id="align_bottom">
<svg id="Untitled-Page%201" viewBox="0 0 27 27" style="background-color:#ffffff00" version="1.1"
	xmlns="http://www.w3.org/2000/svg" xmlns:xlink="http://www.w3.org/1999/xlink" xml:space="preserve"
	x="0px" y="0px" width="27px" height="27px"
>
	<path d="M 1 25 L 5 25 L 5 13 L 11 13 L 11 25 L 16 25 L 16 7 L 22 7 L 22 25 L 26 25 L 26 26 L 1 26 L 1 25 ZM 0 0 L 0 27 L 27 27 L 27 0 L 0 0 Z" fill="#3f3f3c"/>
</svg>
</g>

<g id="linecap_butt">
<svg width="100" height="100" xmlns="http://www.w3.org/2000/svg" xmlns:se="http://svg-edit.googlecode.com" xmlns:xlink="http://www.w3.org/1999/xlink">
 <!-- Created with SVG-edit - http://svg-edit.googlecode.com/ -->
 <defs>
  <linearGradient id="svg_8" x1="0.8" y1="1" x2="0.2" y2="1">
   <stop offset="0" stop-color="#2f2f2c" stop-opacity="1"/>
   <stop offset="1" stop-color="#2f2f2c" stop-opacity="0"/>
  </linearGradient>
 </defs>
 <g>
  <rect fill="url(#svg_8)" stroke="#a0a0a0" stroke-width="2" x="-15.20196" y="43.5974" width="94.8373" height="50.3728" id="svg_3" transform="rotate(-45, 32.2148, 68.7832)"/>
  <path id="svg_1" d="m6.63133,95.07755l59.17514,-59.17514" stroke-width="3" stroke="#00ffff" fill="none"/>
  <path id="svg_2" d="m51.62893,36.10742l13.05662,-13.05662l13.05661,13.05662l-13.05661,13.05662l-13.05662,-13.05662z" stroke="none" fill="#00ffff"/>
 </g>
</svg>
</g>

<g id="linecap_square">
<svg width="100" height="100" xmlns="http://www.w3.org/2000/svg" xmlns:se="http://svg-edit.googlecode.com" xmlns:xlink="http://www.w3.org/1999/xlink">
 <!-- Created with SVG-edit - http://svg-edit.googlecode.com/ -->
 <defs>
  <linearGradient id="svg_8" x1="0.8" y1="1" x2="0.2" y2="1">
   <stop offset="0" stop-color="#2f2f2c" stop-opacity="1"/>
   <stop offset="1" stop-color="#2f2f2c" stop-opacity="0"/>
  </linearGradient>
 </defs>
 <g>
  <rect fill="url(#svg_8)" stroke="none" x="-18.51568" y="35.5974" width="117.46469" height="50.3728" id="svg_3" transform="rotate(-45, 40.2168, 60.7832)"/>
  <path id="svg_1" d="m6.63133,95.07755l59.17514,-59.17514" stroke-width="3" stroke="#00ffff" fill="none"/>
  <path id="svg_2" d="m51.62893,36.10742l13.05662,-13.05662l13.05661,13.05662l-13.05661,13.05662l-13.05662,-13.05662z" stroke="none" fill="#00ffff"/>
 </g>
</svg>
</g>

<g id="linecap_round">
<svg width="100" height="100" xmlns="http://www.w3.org/2000/svg" xmlns:xlink="http://www.w3.org/1999/xlink" xmlns:se="http://svg-edit.googlecode.com">
 <!-- Created with SVG-edit - http://svg-edit.googlecode.com/ -->
 <defs>
  <linearGradient y2="1" x2="0.2" y1="1" x1="0.8" id="svg_8">
   <stop stop-opacity="1" stop-color="#2f2f2c" offset="0"/>
   <stop stop-opacity="0" stop-color="#2f2f2c" offset="1"/>
  </linearGradient>
 </defs>
 <g>
  <path transform="rotate(-45, 41.5117, 59.4648)" id="svg_3" d="m-19.0679,34.2946l94.8359,0c36.499,-1.4142 33.67101,48.9569 0,50.3711l-94.8359,0l0,-50.3711z" stroke-width="2" stroke="#a0a0a0" fill="url(#svg_8)"/>
  <path id="svg_1" d="m6.63133,95.07755l59.17515,-59.17515" stroke-width="3" stroke="#00ffff" fill="none"/>
  <path id="svg_2" d="m51.62893,36.10742l13.05662,-13.05662l13.05661,13.05662l-13.05661,13.05662l-13.05662,-13.05662z" stroke="none" fill="#00ffff"/>
 </g>
</svg>
</g>

<g id="linejoin_miter">
<svg width="100" height="100" xmlns="http://www.w3.org/2000/svg" xmlns:xlink="http://www.w3.org/1999/xlink" xmlns:se="http://svg-edit.googlecode.com">
 <!-- Created with SVG-edit - http://svg-edit.googlecode.com/ -->
 <defs>
  <linearGradient y2="1" x2="0.2" y1="1" x1="0.8" id="svg_8">
   <stop stop-opacity="1" stop-color="#2f2f2c" offset="0"/>
   <stop stop-opacity="0" stop-color="#2f2f2c" offset="1"/>
  </linearGradient>
 </defs>
 <g>
  <path fill="none" stroke="url(#svg_8)" stroke-width="49" d="m-15,-35l75,85l-75,75" id="svg_6"/>
  <path transform="rotate(90, 57.8925, 50.2519)" fill="#00ffff" stroke="none" d="m44.83592,50.25187l13.05661,-13.05663l13.05661,13.05663l-13.05661,13.05662l-13.05661,-13.05662z" id="svg_2"/>
  <path id="svg_4" d="m-15,-35l75,85l-75,75" stroke-width="3" stroke="#00ffff" fill="none"/>
 </g>
</svg>
</g>

<g id="linejoin_bevel">
<svg width="100" height="100" xmlns="http://www.w3.org/2000/svg" xmlns:xlink="http://www.w3.org/1999/xlink" xmlns:se="http://svg-edit.googlecode.com">
 <!-- Created with SVG-edit - http://svg-edit.googlecode.com/ -->
 <defs>
  <linearGradient y2="1" x2="0.2" y1="1" x1="0.8" id="svg_8">
   <stop stop-opacity="1" stop-color="#2f2f2c" offset="0"/>
   <stop stop-opacity="0" stop-color="#2f2f2c" offset="1"/>
  </linearGradient>
 </defs>
 <g>
  <path stroke-linejoin="bevel" fill="none" stroke="url(#svg_8)" stroke-width="49" d="m-15,-35l75,85l-75,75" id="svg_6"/>
  <path transform="rotate(90, 57.8925, 50.2519)" fill="#00ffff" stroke="none" d="m44.83592,50.25187l13.05661,-13.05663l13.05661,13.05663l-13.05661,13.05662l-13.05661,-13.05662z" id="svg_2"/>
  <path id="svg_4" d="m-15,-35l75,85l-75,75" stroke-width="3" stroke="#00ffff" fill="none"/>
 </g>
</svg>
</g>

<g id="linejoin_round">
<svg width="100" height="100" xmlns="http://www.w3.org/2000/svg" xmlns:xlink="http://www.w3.org/1999/xlink" xmlns:se="http://svg-edit.googlecode.com">
 <!-- Created with SVG-edit - http://svg-edit.googlecode.com/ -->
 <defs>
  <linearGradient y2="1" x2="0.2" y1="1" x1="0.8" id="svg_8">
   <stop stop-opacity="1" stop-color="#2f2f2c" offset="0"/>
   <stop stop-opacity="0" stop-color="#2f2f2c" offset="1"/>
  </linearGradient>
 </defs>
 <g>
  <path stroke-linejoin="round" fill="none" stroke="url(#svg_8)" stroke-width="49" d="m-15,-35l75,85l-75,75" id="svg_6"/>
  <path transform="rotate(90, 57.8925, 50.2519)" fill="#00ffff" stroke="none" d="m44.83592,50.25187l13.05661,-13.05663l13.05661,13.05663l-13.05661,13.05662l-13.05661,-13.05662z" id="svg_2"/>
  <path id="svg_4" d="m-15,-35l75,85l-75,75" stroke-width="3" stroke="#00ffff" fill="none"/>
 </g>
</svg>
</g>


<g id="no_color">
	<svg xmlns:xlink="http://www.w3.org/1999/xlink" xmlns="http://www.w3.org/2000/svg" viewBox="0 0 24 24">
	  <line fill="none" stroke="#d40000" id="svg_90" y2="24" x2="24" y1="0" x1="0"/>
	  <line id="svg_92" fill="none" stroke="#d40000" y2="24" x2="0" y1="0" x1="24"/>
	</svg>
</g>


<g id="node_delete">
<svg width="24" height="24" xmlns="http://www.w3.org/2000/svg">
  <path stroke-width="2" id="svg_102" d="m4.1953,19.42128c15.49391,-15.53349 -0.21065,0.1581 15.61084,-15.57944" stroke="#8dd35f" fill="none"/>
  <circle stroke-width="0.5" id="svg_121" stroke="#0000ff" fill="#00ffff" r="2.26172" cy="4" cx="19.75"/>
  <circle id="svg_123" stroke-width="0.5" stroke="#0000ff" fill="#00ffff" r="2.26172" cy="19.40299" cx="4.0653"/>
  <circle id="svg_7" stroke-width="0.5" stroke="#0000ff" fill="#00ffff" r="2.26172" cy="11.625" cx="11.9375"/>
  <g transform="rotate(-45.291072845458984 9.81157112121582,9.244086265563965) " id="svg_6">
   <line stroke-linecap="round" id="svg_4" y2="9.45264" x2="15.14996" y1="9.3943" x1="4.47318" stroke-dasharray="null" stroke-width="2" stroke="#ff0000" fill="none"/>
   <line stroke-linecap="round" id="svg_5" y2="14.46579" x2="9.66571" y1="4.02238" x1="9.7824" stroke-dasharray="null" stroke-width="2" stroke="#ff0000" fill="none"/>
  </g>
</svg>
</g>

<g id="node_clone">
<svg width="24" height="24" xmlns="http://www.w3.org/2000/svg">
  <path stroke-width="2" id="svg_102" d="m4.1953,19.42128c15.49391,-15.53349 -0.21065,0.1581 15.61084,-15.57944" stroke="#8dd35f" fill="none"/>
  <circle stroke-width="0.5" id="svg_121" stroke="#0000ff" fill="#00ffff" r="2.26172" cy="4" cx="19.75"/>
  <circle id="svg_123" stroke-width="0.5" stroke="#0000ff" fill="#00ffff" r="2.26172" cy="19.40299" cx="4.0653"/>
  <circle id="svg_7" stroke-width="0.5" stroke="#0000ff" fill="#00ffff" r="2.26172" cy="11.625" cx="11.9375"/>
  <line stroke-linecap="round" id="svg_5" y2="14.46579" x2="9.66571" y1="4.02238" x1="9.7824" stroke-dasharray="null" stroke-width="2" stroke="#0000ff" fill="#0000ff"/>
  <line stroke-linecap="round" id="svg_4" y2="9.45264" x2="15.14996" y1="9.3943" x1="4.47318" stroke-dasharray="null" stroke-width="2" stroke="#0000ff" fill="#0000ff"/>
</svg>
</g>



<g id="svg_eof"/>

</svg>
